<?xml version="1.0" standalone="no"?>
<svg width="64" height="64" viewBox="0 0 512 384" version="1.1" xmlns="http://www.w3.org/2000/svg">
  <path d="M338 267c-52 0 -83 -43 -120 -92c-41 -55 -88 -120 -171 -120h-47v63h47c52 0 84 47 121 96c41 55 87 116 170 116h29v54l81 -81l-81 -84v48h-29zM121 230c-21 21 -42 35 -74 36c-34 1 -47 0 -47 0v63h47c48 0 83 -20 113 -48c-10 -12 -19 -24 -28 -36 c-4 -5 -7 -10 -11 -15zM367 118v47l81 -84l-81 -81v54h-29c-50 0 -87 23 -117 53c12 14 22 28 32 41c2 3 5 6 7 9c22 -24 46 -39 78 -39h29z" transform="matrix(1,0,0,-1,0,384)"/>
</svg>